<svg xmlns="http://www.w3.org/2000/svg" viewBox="-36 0 472 240">

  <text x="200" y="20" fill="var(--text)" font-size="13" font-weight="700" text-anchor="middle">Reparto en cascada · primer nivel</text>
  <circle cx="80" cy="60" r="8" fill="none" stroke="var(--text)" stroke-width="2" /><line x1="80" y1="68" x2="80" y2="84" stroke="var(--text)" stroke-width="2" stroke-linecap="round" /><line x1="80" y1="72" x2="72" y2="82" stroke="var(--text)" stroke-width="2" stroke-linecap="round" /><line x1="80" y1="72" x2="88" y2="82" stroke="var(--text)" stroke-width="2" stroke-linecap="round" /><text x="80" y="100" fill="var(--text)" font-size="10" font-weight="500" text-anchor="middle">Beneficiario 1</text>
  <circle cx="160" cy="60" r="8" fill="none" stroke="var(--text)" stroke-width="2" /><line x1="160" y1="68" x2="160" y2="84" stroke="var(--text)" stroke-width="2" stroke-linecap="round" /><line x1="160" y1="72" x2="152" y2="82" stroke="var(--text)" stroke-width="2" stroke-linecap="round" /><line x1="160" y1="72" x2="168" y2="82" stroke="var(--text)" stroke-width="2" stroke-linecap="round" /><text x="160" y="100" fill="var(--text)" font-size="10" font-weight="500" text-anchor="middle">Beneficiario 2</text>
  <circle cx="240" cy="60" r="8" fill="none" stroke="var(--text)" stroke-width="2" /><line x1="240" y1="68" x2="240" y2="84" stroke="var(--text)" stroke-width="2" stroke-linecap="round" /><line x1="240" y1="72" x2="232" y2="82" stroke="var(--text)" stroke-width="2" stroke-linecap="round" /><line x1="240" y1="72" x2="248" y2="82" stroke="var(--text)" stroke-width="2" stroke-linecap="round" /><text x="240" y="100" fill="var(--text)" font-size="10" font-weight="500" text-anchor="middle">Beneficiario 3</text>
  <circle cx="320" cy="60" r="8" fill="none" stroke="var(--warning)" stroke-width="2" /><line x1="320" y1="68" x2="320" y2="84" stroke="var(--warning)" stroke-width="2" stroke-linecap="round" /><line x1="320" y1="72" x2="312" y2="82" stroke="var(--warning)" stroke-width="2" stroke-linecap="round" /><line x1="320" y1="72" x2="328" y2="82" stroke="var(--warning)" stroke-width="2" stroke-linecap="round" /><line x1="310" y1="50" x2="330" y2="70" stroke="var(--warning)" stroke-width="2" /><text x="320" y="100" fill="var(--warning)" font-size="10" font-weight="500" text-anchor="middle">Beneficiario 4</text>
  <text x="320" y="105" fill="var(--warning)" font-size="10" font-weight="500" text-anchor="middle">(falleció)</text>

  <line x1="320" y1="118" x2="280" y2="160" stroke="var(--accent)" stroke-width="2" stroke-linecap="round" />
  <line x1="320" y1="118" x2="360" y2="160" stroke="var(--accent)" stroke-width="2" stroke-linecap="round" />
  <circle cx="280" cy="180" r="8" fill="none" stroke="var(--accent)" stroke-width="2" /><line x1="280" y1="188" x2="280" y2="204" stroke="var(--accent)" stroke-width="2" stroke-linecap="round" /><line x1="280" y1="192" x2="272" y2="202" stroke="var(--accent)" stroke-width="2" stroke-linecap="round" /><line x1="280" y1="192" x2="288" y2="202" stroke="var(--accent)" stroke-width="2" stroke-linecap="round" /><text x="280" y="220" fill="var(--accent)" font-size="10" font-weight="500" text-anchor="middle">Hijo A</text>
  <circle cx="360" cy="180" r="8" fill="none" stroke="var(--accent)" stroke-width="2" /><line x1="360" y1="188" x2="360" y2="204" stroke="var(--accent)" stroke-width="2" stroke-linecap="round" /><line x1="360" y1="192" x2="352" y2="202" stroke="var(--accent)" stroke-width="2" stroke-linecap="round" /><line x1="360" y1="192" x2="368" y2="202" stroke="var(--accent)" stroke-width="2" stroke-linecap="round" /><text x="360" y="220" fill="var(--accent)" font-size="10" font-weight="500" text-anchor="middle">Hijo B</text>

  <text x="200" y="225" fill="var(--text-faint)" font-size="10" font-weight="500" text-anchor="middle">la parte del Beneficiario 4 fluye solo hacia sus descendientes, no hacia los otros 3</text>

</svg>