<svg xmlns="http://www.w3.org/2000/svg" viewBox="0 0 400 220">
  <defs>
    <marker id="flecha" markerWidth="8" markerHeight="8" refX="6" refY="4" orient="auto">
      <path d="M0,0 L8,4 L0,8 Z" fill="var(--text)" />
    </marker>
  </defs>

  <circle cx="110" cy="110" r="14" fill="none" stroke="var(--text)" stroke-width="2" /><text x="110" y="114" fill="var(--text)" font-size="12" font-weight="700" text-anchor="middle"></text><line x1="110" y1="110" x2="62.36860279185587" y2="82.5" stroke="var(--text)" stroke-width="2" stroke-linecap="round" /><circle cx="62.36860279185587" cy="82.5" r="11" fill="none" stroke="var(--text-sub)" stroke-width="2" /><text x="62.36860279185587" y="86.5" fill="var(--text)" font-size="12" font-weight="700" text-anchor="middle">F</text><line x1="110" y1="110" x2="157.63139720814414" y2="82.5" stroke="var(--text)" stroke-width="2" stroke-linecap="round" /><circle cx="157.63139720814414" cy="82.5" r="11" fill="none" stroke="var(--text-sub)" stroke-width="2" /><text x="157.63139720814414" y="86.5" fill="var(--text)" font-size="12" font-weight="700" text-anchor="middle">F</text><line x1="110" y1="110" x2="110" y2="165" stroke="var(--text)" stroke-width="2" stroke-linecap="round" /><circle cx="110" cy="165" r="11" fill="none" stroke="var(--text-sub)" stroke-width="2" /><text x="110" y="169" fill="var(--text)" font-size="12" font-weight="700" text-anchor="middle">F</text>
  <text x="110" y="25" fill="var(--text)" font-size="12" font-weight="700" text-anchor="middle">BF₃ · 120°</text>
  <text x="110" y="195" fill="var(--text-sub)" font-size="10" font-weight="500" text-anchor="middle">trigonal plana, sin par libre en B</text>

  <circle cx="300" cy="110" r="14" fill="none" stroke="var(--text)" stroke-width="2" /><text x="300" y="114" fill="var(--text)" font-size="12" font-weight="700" text-anchor="middle"></text><line x1="300" y1="110" x2="257.8675556284562" y2="74.64668146724033" stroke="var(--text)" stroke-width="2" stroke-linecap="round" /><circle cx="257.8675556284562" cy="74.64668146724033" r="11" fill="none" stroke="var(--text-sub)" stroke-width="2" /><text x="257.8675556284562" y="78.64668146724033" fill="var(--text)" font-size="12" font-weight="700" text-anchor="middle">F</text><line x1="300" y1="110" x2="342.1324443715438" y2="74.64668146724034" stroke="var(--text)" stroke-width="2" stroke-linecap="round" /><circle cx="342.1324443715438" cy="74.64668146724034" r="11" fill="none" stroke="var(--text-sub)" stroke-width="2" /><text x="342.1324443715438" y="78.64668146724034" fill="var(--text)" font-size="12" font-weight="700" text-anchor="middle">F</text><line x1="300" y1="110" x2="300" y2="165" stroke="var(--text)" stroke-width="2" stroke-linecap="round" /><circle cx="300" cy="165" r="11" fill="none" stroke="var(--text-sub)" stroke-width="2" /><text x="300" y="169" fill="var(--text)" font-size="12" font-weight="700" text-anchor="middle">F</text><circle cx="295" cy="88" r="2.2" fill="var(--warning)" /><circle cx="305" cy="88" r="2.2" fill="var(--warning)" />
  <text x="300" y="25" fill="var(--text)" font-size="12" font-weight="700" text-anchor="middle">NF₃ · <109,5°</text>
  <text x="300" y="195" fill="var(--warning)" font-size="10" font-weight="500" text-anchor="middle">piramidal, 1 par libre en N</text>

</svg>