<svg xmlns="http://www.w3.org/2000/svg" viewBox="0 0 400 300">
  <defs>
    <marker id="flecha" markerWidth="8" markerHeight="8" refX="6" refY="4" orient="auto">
      <path d="M0,0 L8,4 L0,8 Z" fill="var(--text)" />
    </marker>
  </defs>

  
  <circle cx="100" cy="80" r="34" fill="none" stroke="var(--border)" stroke-width="2" />
  <circle cx="100" cy="80" r="22" fill="none" stroke="var(--border)" stroke-width="2" />
  <circle cx="100" cy="80" r="10" fill="none" stroke="var(--border)" stroke-width="2" />
  <circle cx="102" cy="78" r="3.5" fill="var(--exito)" />
  <circle cx="97" cy="83" r="3.5" fill="var(--exito)" />
  <circle cx="101" cy="84" r="3.5" fill="var(--exito)" />
  <circle cx="98" cy="77" r="3.5" fill="var(--exito)" />
  
  <text x="100" y="135" fill="var(--text)" font-size="11" font-weight="700" text-anchor="middle">Precisa y exacta</text>

  
  <circle cx="300" cy="80" r="34" fill="none" stroke="var(--border)" stroke-width="2" />
  <circle cx="300" cy="80" r="22" fill="none" stroke="var(--border)" stroke-width="2" />
  <circle cx="300" cy="80" r="10" fill="none" stroke="var(--border)" stroke-width="2" />
  <circle cx="324" cy="56" r="3.5" fill="var(--warning)" />
  <circle cx="326" cy="60" r="3.5" fill="var(--warning)" />
  <circle cx="322" cy="54" r="3.5" fill="var(--warning)" />
  <circle cx="325" cy="58" r="3.5" fill="var(--warning)" />
  
  <text x="300" y="135" fill="var(--text)" font-size="11" font-weight="700" text-anchor="middle">Precisa, no exacta</text>

  
  <circle cx="100" cy="220" r="34" fill="none" stroke="var(--border)" stroke-width="2" />
  <circle cx="100" cy="220" r="22" fill="none" stroke="var(--border)" stroke-width="2" />
  <circle cx="100" cy="220" r="10" fill="none" stroke="var(--border)" stroke-width="2" />
  <circle cx="80" cy="235" r="3.5" fill="var(--accent)" />
  <circle cx="118" cy="198" r="3.5" fill="var(--accent)" />
  <circle cx="85" cy="202" r="3.5" fill="var(--accent)" />
  <circle cx="122" cy="240" r="3.5" fill="var(--accent)" />
  <circle cx="100" cy="192" r="3.5" fill="var(--accent)" />
  
  <text x="100" y="275" fill="var(--text)" font-size="11" font-weight="700" text-anchor="middle">Exacta en promedio, no precisa</text>

  
  <circle cx="300" cy="220" r="34" fill="none" stroke="var(--border)" stroke-width="2" />
  <circle cx="300" cy="220" r="22" fill="none" stroke="var(--border)" stroke-width="2" />
  <circle cx="300" cy="220" r="10" fill="none" stroke="var(--border)" stroke-width="2" />
  <circle cx="270" cy="240" r="3.5" fill="var(--text-sub)" />
  <circle cx="328" cy="190" r="3.5" fill="var(--text-sub)" />
  <circle cx="335" cy="235" r="3.5" fill="var(--text-sub)" />
  <circle cx="275" cy="190" r="3.5" fill="var(--text-sub)" />
  <circle cx="310" cy="254" r="3.5" fill="var(--text-sub)" />
  
  <text x="300" y="275" fill="var(--text)" font-size="11" font-weight="700" text-anchor="middle">Ni exacta ni precisa</text>

</svg>